<svg width="72" height="72" viewBox="0 0 72 72" fill="none" xmlns="http://www.w3.org/2000/svg">
<rect width="72" height="72" rx="36" fill="#4A6DFF"/>
<rect width="72" height="72" rx="36" fill="black" fill-opacity="0.2"/>
<rect width="72" height="72" rx="36" fill="black" fill-opacity="0.2"/>
<rect width="72" height="72" rx="36" fill="black" fill-opacity="0.2"/>
<rect width="72" height="72" rx="36" fill="black" fill-opacity="0.2"/>
<path d="M43.1667 43.1668C43.1667 41.187 37.5516 39.5835 30.625 39.5835M43.1667 43.1668C43.1667 45.1466 37.5516 46.7502 30.625 46.7502C23.6984 46.7502 18.0834 45.1466 18.0834 43.1668M43.1667 43.1668V52.0123C43.1667 54.053 37.5516 55.7085 30.625 55.7085C23.6984 55.7085 18.0834 54.0548 18.0834 52.0123V43.1668M43.1667 43.1668C50.018 43.1668 55.7084 41.3985 55.7084 39.5835V21.6668M30.625 39.5835C23.6984 39.5835 18.0834 41.187 18.0834 43.1668M30.625 39.5835C22.7094 39.5835 16.2917 37.8151 16.2917 36.0002V27.0418M30.625 23.4585C22.7094 23.4585 16.2917 25.062 16.2917 27.0418M16.2917 27.0418C16.2917 29.0216 22.7094 30.6252 30.625 30.6252C30.625 32.4401 36.4533 34.2085 43.3046 34.2085C50.156 34.2085 55.7084 32.4401 55.7084 30.6252M55.7084 21.6668C55.7084 19.687 50.1542 18.0835 43.3046 18.0835C36.4551 18.0835 30.9009 19.687 30.9009 21.6668M55.7084 21.6668C55.7084 23.6466 50.1542 25.2502 43.3046 25.2502C36.4551 25.2502 30.9009 23.6466 30.9009 21.6668M30.9009 21.6668V39.8809" stroke="white" stroke-width="2"/>
</svg>
