<svg width="72" height="72" viewBox="0 0 72 72" fill="none" xmlns="http://www.w3.org/2000/svg">
<rect width="72" height="72" rx="36" fill="#4A6DFF"/>
<rect width="72" height="72" rx="36" fill="black" fill-opacity="0.2"/>
<rect width="72" height="72" rx="36" fill="black" fill-opacity="0.2"/>
<rect width="72" height="72" rx="36" fill="black" fill-opacity="0.2"/>
<rect width="72" height="72" rx="36" fill="black" fill-opacity="0.2"/>
<g clip-path="url(#clip0_1092_368)">
<path d="M48.342 18.918C47.8516 18.918 47.3848 19.1403 46.9925 19.5326L46.0535 20.431L51.5694 25.9468L52.4691 25.0079C53.2537 24.2233 53.2537 23.0542 52.4691 22.2696L49.7308 19.5313C49.3385 19.139 48.8324 18.918 48.342 18.918ZM45.1538 21.2077L43.7232 22.3938L49.6078 28.2784L50.9155 26.9707L45.1538 21.2077ZM42.9465 23.3327L31.138 35.0209C31.0783 35.0704 31.0232 35.1251 30.9732 35.1844L30.8921 35.2249C30.7507 35.3891 30.6523 35.586 30.6058 35.7977L29.0117 41.3959C28.9434 41.6175 28.9368 41.8535 28.9926 42.0785C29.0484 42.3036 29.1646 42.5092 29.3285 42.6731C29.4925 42.8371 29.6981 42.9532 29.9231 43.0091C30.1482 43.0649 30.3842 43.0583 30.6058 42.99L36.204 41.3959C36.3897 41.3514 36.5631 41.2659 36.7115 41.1458C36.8599 41.0256 36.9796 40.8738 37.0618 40.7015L48.6689 29.2174L46.4615 26.8465V26.9694L44.908 25.4159H45.0309L42.9465 23.3327ZM20.0632 24.2311C19.7602 24.2887 19.4874 24.4516 19.2928 24.6909C19.0983 24.9301 18.9946 25.2305 19 25.5388V51.6927C19 52.0395 19.1378 52.3721 19.383 52.6173C19.6283 52.8626 19.9609 53.0004 20.3077 53.0004H46.4615C46.8084 53.0004 47.141 52.8626 47.3862 52.6173C47.6315 52.3721 47.7692 52.0395 47.7692 51.6927V37.308C47.7692 36.9612 47.6315 36.6286 47.3862 36.3834C47.141 36.1381 46.8084 36.0004 46.4615 36.0004C46.1147 36.0004 45.7821 36.1381 45.5369 36.3834C45.2916 36.6286 45.1538 36.9612 45.1538 37.308V50.385H21.6154V26.8465H34.6923C35.0391 26.8465 35.3717 26.7087 35.617 26.4635C35.8622 26.2183 36 25.8856 36 25.5388C36 25.192 35.8622 24.8594 35.617 24.6141C35.3717 24.3689 35.0391 24.2311 34.6923 24.2311H20.3077C20.2667 24.2292 20.2257 24.2292 20.1848 24.2311C20.1438 24.2292 20.1028 24.2292 20.0618 24.2311H20.0632ZM32.8955 37.0635L34.6936 37.1851L34.8165 39.1467L33.0185 39.6776L32.3241 38.9845L32.8955 37.0635Z" fill="white"/>
</g>
<defs>
<clipPath id="clip0_1092_368">
<rect width="34" height="34" fill="white" transform="translate(19 19)"/>
</clipPath>
</defs>
</svg>
