<svg width="145" height="96" viewBox="0 0 145 96" fill="none" xmlns="http://www.w3.org/2000/svg">
<mask id="path-1-outside-1_3034_211" maskUnits="userSpaceOnUse" x="22" y="0" width="98" height="91" fill="black">
<rect fill="white" x="22" width="98" height="91"/>
<path d="M23.0455 45.72C23.0455 31.96 25.2855 21.24 29.7655 13.56C34.2455 5.8 42.0855 1.92 53.2855 1.92C64.4055 1.92 72.2055 5.8 76.6855 13.56C81.1655 21.24 83.4055 31.96 83.4055 45.72C83.4055 59.72 81.1655 70.6 76.6855 78.36C72.2055 86.12 64.4055 90 53.2855 90C42.0855 90 34.2455 86.12 29.7655 78.36C25.2855 70.6 23.0455 59.72 23.0455 45.72ZM72.6055 45.72C72.6055 38.76 72.1255 32.88 71.1655 28.08C70.2855 23.2 68.4055 19.28 65.5255 16.32C62.7255 13.36 58.6455 11.88 53.2855 11.88C47.8455 11.88 43.6855 13.36 40.8055 16.32C38.0055 19.28 36.1255 23.2 35.1655 28.08C34.2855 32.88 33.8455 38.76 33.8455 45.72C33.8455 52.92 34.2855 58.96 35.1655 63.84C36.1255 68.72 38.0055 72.64 40.8055 75.6C43.6855 78.56 47.8455 80.04 53.2855 80.04C58.6455 80.04 62.7255 78.56 65.5255 75.6C68.4055 72.64 70.2855 68.72 71.1655 63.84C72.1255 58.96 72.6055 52.92 72.6055 45.72ZM95.517 13.2V3.23999H118.077V90H107.037V13.2H95.517Z"/>
</mask>
<path d="M29.7655 13.56L30.6293 14.0639L30.6315 14.06L29.7655 13.56ZM76.6855 13.56L75.8194 14.06L75.8217 14.0639L76.6855 13.56ZM29.7655 78.36L30.6315 77.86L29.7655 78.36ZM71.1655 28.08L70.1813 28.2575L70.183 28.2668L70.1849 28.2761L71.1655 28.08ZM65.5255 16.32L64.7989 17.0073L64.8087 17.0174L65.5255 16.32ZM40.8055 16.32L40.0887 15.6226L40.079 15.6328L40.8055 16.32ZM35.1655 28.08L34.1842 27.887L34.1819 27.8997L35.1655 28.08ZM35.1655 63.84L34.1813 64.0175L34.1827 64.0253L34.1843 64.033L35.1655 63.84ZM40.8055 75.6L40.0789 76.2873L40.0887 76.2974L40.8055 75.6ZM65.5255 75.6L64.8087 74.9026L64.799 74.9128L65.5255 75.6ZM71.1655 63.84L70.1843 63.647L70.1827 63.6547L70.1813 63.6625L71.1655 63.84ZM24.0455 45.72C24.0455 32.0483 26.2745 21.5292 30.6292 14.0639L28.9017 13.0561C24.2964 20.9508 22.0455 31.8717 22.0455 45.72H24.0455ZM30.6315 14.06C34.8863 6.69 42.3387 2.92 53.2855 2.92V0.919997C41.8322 0.919997 33.6046 4.90999 28.8994 13.06L30.6315 14.06ZM53.2855 2.92C64.1487 2.92 71.5632 6.68759 75.8194 14.06L77.5515 13.06C72.8477 4.91241 64.6622 0.919997 53.2855 0.919997V2.92ZM75.8217 14.0639C80.1764 21.5292 82.4055 32.0483 82.4055 45.72H84.4055C84.4055 31.8717 82.1545 20.9508 77.5492 13.0561L75.8217 14.0639ZM82.4055 45.72C82.4055 59.6344 80.1756 70.3145 75.8194 77.86L77.5515 78.86C82.1553 70.8855 84.4055 59.8056 84.4055 45.72H82.4055ZM75.8194 77.86C71.5632 85.2324 64.1487 89 53.2855 89V91C64.6622 91 72.8477 87.0076 77.5515 78.86L75.8194 77.86ZM53.2855 89C42.3387 89 34.8863 85.23 30.6315 77.86L28.8994 78.86C33.6046 87.01 41.8322 91 53.2855 91V89ZM30.6315 77.86C26.2753 70.3145 24.0455 59.6344 24.0455 45.72H22.0455C22.0455 59.8056 24.2956 70.8855 28.8994 78.86L30.6315 77.86ZM73.6055 45.72C73.6055 38.7193 73.1231 32.7691 72.146 27.8839L70.1849 28.2761C71.1278 32.9909 71.6055 38.8007 71.6055 45.72H73.6055ZM72.1496 27.9025C71.2415 22.8664 69.287 18.752 66.2422 15.6226L64.8087 17.0174C67.524 19.808 69.3295 23.5336 70.1813 28.2575L72.1496 27.9025ZM66.2519 15.6328C63.2086 12.4156 58.8295 10.88 53.2855 10.88V12.88C58.4614 12.88 62.2423 14.3044 64.799 17.0072L66.2519 15.6328ZM53.2855 10.88C47.6647 10.88 43.2113 12.4134 40.0887 15.6226L41.5222 17.0174C44.1597 14.3066 48.0262 12.88 53.2855 12.88V10.88ZM40.079 15.6328C37.123 18.7577 35.1727 22.8626 34.1843 27.887L36.1467 28.273C37.0783 23.5374 38.8879 19.8023 41.5319 17.0072L40.079 15.6328ZM34.1819 27.8997C33.2874 32.7783 32.8455 38.7228 32.8455 45.72H34.8455C34.8455 38.7972 35.2835 32.9817 36.1491 28.2603L34.1819 27.8997ZM32.8455 45.72C32.8455 52.9554 33.2872 59.0592 34.1813 64.0175L36.1496 63.6625C35.2837 58.8608 34.8455 52.8846 34.8455 45.72H32.8455ZM34.1843 64.033C35.1727 69.0574 37.123 73.1623 40.079 76.2872L41.5319 74.9128C38.8879 72.1177 37.0783 68.3826 36.1467 63.647L34.1843 64.033ZM40.0887 76.2974C43.2113 79.5066 47.6647 81.04 53.2855 81.04V79.04C48.0262 79.04 44.1597 77.6134 41.5222 74.9026L40.0887 76.2974ZM53.2855 81.04C58.8295 81.04 63.2086 79.5044 66.2519 76.2872L64.799 74.9128C62.2423 77.6156 58.4614 79.04 53.2855 79.04V81.04ZM66.2422 76.2974C69.287 73.168 71.2415 69.0536 72.1496 64.0175L70.1813 63.6625C69.3295 68.3864 67.524 72.112 64.8087 74.9026L66.2422 76.2974ZM72.1467 64.033C73.1234 59.0682 73.6055 52.9587 73.6055 45.72H71.6055C71.6055 52.8812 71.1276 58.8518 70.1843 63.647L72.1467 64.033ZM95.517 13.2H94.517V14.2H95.517V13.2ZM95.517 3.23999V2.23999H94.517V3.23999H95.517ZM118.077 3.23999H119.077V2.23999H118.077V3.23999ZM118.077 90V91H119.077V90H118.077ZM107.037 90H106.037V91H107.037V90ZM107.037 13.2H108.037V12.2H107.037V13.2ZM96.517 13.2V3.23999H94.517V13.2H96.517ZM95.517 4.23999H118.077V2.23999H95.517V4.23999ZM117.077 3.23999V90H119.077V3.23999H117.077ZM118.077 89H107.037V91H118.077V89ZM108.037 90V13.2H106.037V90H108.037ZM107.037 12.2H95.517V14.2H107.037V12.2Z" fill="#C9C5CA" mask="url(#path-1-outside-1_3034_211)"/>
</svg>
