<svg width="145" height="96" viewBox="0 0 145 96" fill="none" xmlns="http://www.w3.org/2000/svg">
<mask id="path-1-outside-1_3034_212" maskUnits="userSpaceOnUse" x="6" y="0" width="135" height="91" fill="black">
<rect fill="white" x="6" width="135" height="91"/>
<path d="M7.7525 45.72C7.7525 31.96 9.9925 21.24 14.4725 13.56C18.9525 5.8 26.7925 1.92 37.9925 1.92C49.1125 1.92 56.9125 5.8 61.3925 13.56C65.8725 21.24 68.1125 31.96 68.1125 45.72C68.1125 59.72 65.8725 70.6 61.3925 78.36C56.9125 86.12 49.1125 90 37.9925 90C26.7925 90 18.9525 86.12 14.4725 78.36C9.9925 70.6 7.7525 59.72 7.7525 45.72ZM57.3125 45.72C57.3125 38.76 56.8325 32.88 55.8725 28.08C54.9925 23.2 53.1125 19.28 50.2325 16.32C47.4325 13.36 43.3525 11.88 37.9925 11.88C32.5525 11.88 28.3925 13.36 25.5125 16.32C22.7125 19.28 20.8325 23.2 19.8725 28.08C18.9925 32.88 18.5525 38.76 18.5525 45.72C18.5525 52.92 18.9925 58.96 19.8725 63.84C20.8325 68.72 22.7125 72.64 25.5125 75.6C28.3925 78.56 32.5525 80.04 37.9925 80.04C43.3525 80.04 47.4325 78.56 50.2325 75.6C53.1125 72.64 54.9925 68.72 55.8725 63.84C56.8325 58.96 57.3125 52.92 57.3125 45.72ZM81.7841 81.24C91.9441 73.08 99.9041 66.4 105.664 61.2C111.424 55.92 116.264 50.44 120.184 44.76C124.184 39 126.184 33.36 126.184 27.84C126.184 22.64 124.904 18.56 122.344 15.6C119.864 12.56 115.824 11.04 110.224 11.04C104.784 11.04 100.544 12.76 97.5041 16.2C94.5441 19.56 92.9441 24.08 92.7041 29.76H82.1441C82.4641 20.8 85.1841 13.88 90.3041 9C95.4241 4.11999 102.024 1.67999 110.104 1.67999C118.344 1.67999 124.864 3.95999 129.664 8.52C134.544 13.08 136.984 19.36 136.984 27.36C136.984 34 134.984 40.48 130.984 46.8C127.064 53.04 122.584 58.56 117.544 63.36C112.504 68.08 106.064 73.6 98.2241 79.92H139.504V89.04H81.7841V81.24Z"/>
</mask>
<path d="M14.4725 13.56L15.3363 14.0639L15.3385 14.06L14.4725 13.56ZM61.3925 13.56L60.5265 14.06L60.5287 14.0639L61.3925 13.56ZM14.4725 78.36L15.3385 77.86L14.4725 78.36ZM55.8725 28.08L54.8884 28.2575L54.8901 28.2668L54.8919 28.2761L55.8725 28.08ZM50.2325 16.32L49.506 17.0073L49.5158 17.0174L50.2325 16.32ZM25.5125 16.32L24.7957 15.6226L24.786 15.6328L25.5125 16.32ZM19.8725 28.08L18.8912 27.887L18.8889 27.8997L19.8725 28.08ZM19.8725 63.84L18.8884 64.0175L18.8898 64.0253L18.8913 64.033L19.8725 63.84ZM25.5125 75.6L24.786 76.2873L24.7958 76.2974L25.5125 75.6ZM50.2325 75.6L49.5157 74.9026L49.506 74.9128L50.2325 75.6ZM55.8725 63.84L54.8913 63.647L54.8898 63.6547L54.8884 63.6625L55.8725 63.84ZM8.7525 45.72C8.7525 32.0483 10.9815 21.5292 15.3363 14.0639L13.6087 13.0561C9.00347 20.9508 6.7525 31.8717 6.7525 45.72H8.7525ZM15.3385 14.06C19.5934 6.69 27.0458 2.92 37.9925 2.92V0.919997C26.5392 0.919997 18.3116 4.90999 13.6065 13.06L15.3385 14.06ZM37.9925 2.92C48.8558 2.92 56.2702 6.68759 60.5265 14.06L62.2585 13.06C57.5548 4.91241 49.3692 0.919997 37.9925 0.919997V2.92ZM60.5287 14.0639C64.8835 21.5292 67.1125 32.0483 67.1125 45.72H69.1125C69.1125 31.8717 66.8615 20.9508 62.2563 13.0561L60.5287 14.0639ZM67.1125 45.72C67.1125 59.6344 64.8826 70.3145 60.5265 77.86L62.2585 78.86C66.8624 70.8855 69.1125 59.8056 69.1125 45.72H67.1125ZM60.5265 77.86C56.2702 85.2324 48.8558 89 37.9925 89V91C49.3692 91 57.5548 87.0076 62.2585 78.86L60.5265 77.86ZM37.9925 89C27.0458 89 19.5934 85.23 15.3385 77.86L13.6065 78.86C18.3116 87.01 26.5392 91 37.9925 91V89ZM15.3385 77.86C10.9824 70.3145 8.7525 59.6344 8.7525 45.72H6.7525C6.7525 59.8056 9.00263 70.8855 13.6065 78.86L15.3385 77.86ZM58.3125 45.72C58.3125 38.7193 57.8301 32.7691 56.8531 27.8839L54.8919 28.2761C55.8349 32.9909 56.3125 38.8007 56.3125 45.72H58.3125ZM56.8566 27.9025C55.9485 22.8664 53.994 18.752 50.9492 15.6226L49.5158 17.0174C52.231 19.808 54.0365 23.5336 54.8884 28.2575L56.8566 27.9025ZM50.959 15.6328C47.9156 12.4156 43.5365 10.88 37.9925 10.88V12.88C43.1685 12.88 46.9494 14.3044 49.506 17.0072L50.959 15.6328ZM37.9925 10.88C32.3718 10.88 27.9183 12.4134 24.7958 15.6226L26.2292 17.0174C28.8667 14.3066 32.7332 12.88 37.9925 12.88V10.88ZM24.786 15.6328C21.8301 18.7577 19.8797 22.8626 18.8913 27.887L20.8537 28.273C21.7853 23.5374 23.5949 19.8023 26.239 17.0072L24.786 15.6328ZM18.8889 27.8997C17.9945 32.7783 17.5525 38.7228 17.5525 45.72H19.5525C19.5525 38.7972 19.9905 32.9817 20.8561 28.2603L18.8889 27.8997ZM17.5525 45.72C17.5525 52.9554 17.9943 59.0592 18.8884 64.0175L20.8566 63.6625C19.9907 58.8608 19.5525 52.8846 19.5525 45.72H17.5525ZM18.8913 64.033C19.8797 69.0574 21.8301 73.1623 24.786 76.2872L26.239 74.9128C23.5949 72.1177 21.7853 68.3826 20.8537 63.647L18.8913 64.033ZM24.7958 76.2974C27.9183 79.5066 32.3718 81.04 37.9925 81.04V79.04C32.7332 79.04 28.8667 77.6134 26.2292 74.9026L24.7958 76.2974ZM37.9925 81.04C43.5365 81.04 47.9156 79.5044 50.959 76.2872L49.506 74.9128C46.9494 77.6156 43.1685 79.04 37.9925 79.04V81.04ZM50.9492 76.2974C53.994 73.168 55.9485 69.0536 56.8566 64.0175L54.8884 63.6625C54.0365 68.3864 52.231 72.112 49.5158 74.9026L50.9492 76.2974ZM56.8537 64.033C57.8304 59.0682 58.3125 52.9587 58.3125 45.72H56.3125C56.3125 52.8812 55.8346 58.8518 54.8913 63.647L56.8537 64.033ZM81.7841 81.24L81.1579 80.4603L80.7841 80.7606V81.24H81.7841ZM105.664 61.2L106.334 61.9423L106.34 61.9372L105.664 61.2ZM120.184 44.76L119.363 44.1896L119.361 44.192L120.184 44.76ZM122.344 15.6L121.569 16.2321L121.578 16.2433L121.588 16.2542L122.344 15.6ZM97.5041 16.2L96.7547 15.5378L96.7537 15.539L97.5041 16.2ZM92.7041 29.76V30.76H93.6627L93.7032 29.8022L92.7041 29.76ZM82.1441 29.76L81.1447 29.7243L81.1077 30.76H82.1441V29.76ZM90.3041 9L90.994 9.72387L90.3041 9ZM129.664 8.52L128.975 9.24502L128.981 9.25065L129.664 8.52ZM130.984 46.8L130.139 46.2652L130.137 46.268L130.984 46.8ZM117.544 63.36L118.228 64.0899L118.234 64.0841L117.544 63.36ZM98.2241 79.92L97.5965 79.1415L95.3902 80.92H98.2241V79.92ZM139.504 79.92H140.504V78.92H139.504V79.92ZM139.504 89.04V90.04H140.504V89.04H139.504ZM81.7841 89.04H80.7841V90.04H81.7841V89.04ZM82.4103 82.0197C92.5767 73.8545 100.554 67.1609 106.334 61.9423L104.994 60.4577C99.2546 65.6391 91.3114 72.3055 81.1579 80.4603L82.4103 82.0197ZM106.34 61.9372C112.148 56.613 117.039 51.0772 121.007 45.328L119.361 44.192C115.489 49.8028 110.7 55.227 104.988 60.4628L106.34 61.9372ZM121.005 45.3304C125.09 39.4482 127.184 33.6129 127.184 27.84H125.184C125.184 33.1071 123.278 38.5518 119.363 44.1896L121.005 45.3304ZM127.184 27.84C127.184 22.4797 125.863 18.1401 123.1 14.9458L121.588 16.2542C123.945 18.9799 125.184 22.8003 125.184 27.84H127.184ZM123.119 14.9679C120.378 11.6082 115.991 10.04 110.224 10.04V12.04C115.657 12.04 119.35 13.5118 121.569 16.2321L123.119 14.9679ZM110.224 10.04C104.556 10.04 100.02 11.843 96.7547 15.5378L98.2534 16.8622C101.068 13.677 105.013 12.04 110.224 12.04V10.04ZM96.7537 15.539C93.6055 19.1126 91.952 23.872 91.705 29.7178L93.7032 29.8022C93.9362 24.288 95.4826 20.0074 98.2544 16.861L96.7537 15.539ZM92.7041 28.76H82.1441V30.76H92.7041V28.76ZM83.1434 29.7957C83.4567 21.0235 86.1101 14.3788 90.994 9.72387L89.6141 8.27613C84.258 13.3812 81.4714 20.5765 81.1447 29.7243L83.1434 29.7957ZM90.994 9.72387C95.9013 5.04658 102.242 2.67999 110.104 2.67999V0.679993C101.807 0.679993 94.9468 3.19341 89.6141 8.27613L90.994 9.72387ZM110.104 2.67999C118.154 2.67999 124.404 4.90219 128.975 9.245L130.353 7.795C125.324 3.0178 118.535 0.679993 110.104 0.679993V2.67999ZM128.981 9.25065C133.619 13.5845 135.984 19.5777 135.984 27.36H137.984C137.984 19.1423 135.469 12.5755 130.347 7.78934L128.981 9.25065ZM135.984 27.36C135.984 33.7874 134.051 40.0844 130.139 46.2652L131.829 47.3348C135.917 40.8756 137.984 34.2126 137.984 27.36H135.984ZM130.137 46.268C126.259 52.4418 121.831 57.8964 116.854 62.6359L118.234 64.0841C123.337 59.2236 127.869 53.6382 131.831 47.3319L130.137 46.268ZM116.861 62.6301C111.845 67.3275 105.425 72.8306 97.5965 79.1415L98.8517 80.6985C106.703 74.3694 113.163 68.8325 118.228 64.0899L116.861 62.6301ZM98.2241 80.92H139.504V78.92H98.2241V80.92ZM138.504 79.92V89.04H140.504V79.92H138.504ZM139.504 88.04H81.7841V90.04H139.504V88.04ZM82.7841 89.04V81.24H80.7841V89.04H82.7841Z" fill="#C9C5CA" mask="url(#path-1-outside-1_3034_212)"/>
</svg>
