<svg width="158" height="96" viewBox="0 0 158 96" fill="none" xmlns="http://www.w3.org/2000/svg">
<mask id="path-1-outside-1_3034_213" maskUnits="userSpaceOnUse" x="12" y="0" width="134" height="92" fill="black">
<rect fill="white" x="12" width="134" height="92"/>
<path d="M13.4322 45.72C13.4322 31.96 15.6722 21.24 20.1522 13.56C24.6322 5.8 32.4722 1.92 43.6722 1.92C54.7922 1.92 62.5922 5.8 67.0722 13.56C71.5522 21.24 73.7922 31.96 73.7922 45.72C73.7922 59.72 71.5522 70.6 67.0722 78.36C62.5922 86.12 54.7922 90 43.6722 90C32.4722 90 24.6322 86.12 20.1522 78.36C15.6722 70.6 13.4322 59.72 13.4322 45.72ZM62.9922 45.72C62.9922 38.76 62.5122 32.88 61.5522 28.08C60.6722 23.2 58.7922 19.28 55.9122 16.32C53.1122 13.36 49.0322 11.88 43.6722 11.88C38.2322 11.88 34.0722 13.36 31.1922 16.32C28.3922 19.28 26.5122 23.2 25.5522 28.08C24.6722 32.88 24.2322 38.76 24.2322 45.72C24.2322 52.92 24.6722 58.96 25.5522 63.84C26.5122 68.72 28.3922 72.64 31.1922 75.6C34.0722 78.56 38.2322 80.04 43.6722 80.04C49.0322 80.04 53.1122 78.56 55.9122 75.6C58.7922 72.64 60.6722 68.72 61.5522 63.84C62.5122 58.96 62.9922 52.92 62.9922 45.72ZM88.5438 25.08C89.1038 17.72 91.9438 11.96 97.0638 7.79999C102.184 3.63999 108.824 1.55999 116.984 1.55999C122.424 1.55999 127.104 2.56 131.024 4.56C135.024 6.48 138.024 9.12 140.024 12.48C142.104 15.84 143.144 19.64 143.144 23.88C143.144 28.84 141.704 33.12 138.824 36.72C136.024 40.32 132.344 42.64 127.784 43.68V44.28C132.984 45.56 137.104 48.08 140.144 51.84C143.184 55.6 144.704 60.52 144.704 66.6C144.704 71.16 143.664 75.28 141.584 78.96C139.504 82.56 136.384 85.4 132.224 87.48C128.064 89.56 123.064 90.6 117.224 90.6C108.744 90.6 101.784 88.4 96.3438 84C90.9038 79.52 87.8638 73.2 87.2238 65.04H97.7838C98.3438 69.84 100.304 73.76 103.664 76.8C107.024 79.84 111.504 81.36 117.104 81.36C122.704 81.36 126.944 79.92 129.824 77.04C132.784 74.08 134.264 70.28 134.264 65.64C134.264 59.64 132.264 55.32 128.264 52.68C124.264 50.04 118.224 48.72 110.144 48.72H107.384V39.6H110.264C117.624 39.52 123.184 38.32 126.944 36C130.704 33.6 132.584 29.92 132.584 24.96C132.584 20.72 131.184 17.32 128.384 14.76C125.664 12.2 121.744 10.92 116.624 10.92C111.664 10.92 107.664 12.2 104.624 14.76C101.584 17.32 99.7838 20.76 99.2238 25.08H88.5438Z"/>
</mask>
<path d="M20.1522 13.56L21.016 14.0639L21.0182 14.06L20.1522 13.56ZM67.0722 13.56L66.2061 14.06L66.2084 14.0639L67.0722 13.56ZM20.1522 78.36L21.0182 77.86L20.1522 78.36ZM61.5522 28.08L60.5681 28.2575L60.5697 28.2668L60.5716 28.2761L61.5522 28.08ZM55.9122 16.32L55.1856 17.0073L55.1955 17.0174L55.9122 16.32ZM31.1922 16.32L30.4754 15.6226L30.4657 15.6328L31.1922 16.32ZM25.5522 28.08L24.5709 27.887L24.5686 27.8997L25.5522 28.08ZM25.5522 63.84L24.5681 64.0175L24.5695 64.0253L24.571 64.033L25.5522 63.84ZM31.1922 75.6L30.4656 76.2873L30.4755 76.2974L31.1922 75.6ZM55.9122 75.6L55.1954 74.9026L55.1857 74.9128L55.9122 75.6ZM61.5522 63.84L60.571 63.647L60.5695 63.6547L60.5681 63.6625L61.5522 63.84ZM14.4322 45.72C14.4322 32.0483 16.6612 21.5292 21.016 14.0639L19.2884 13.0561C14.6832 20.9508 12.4322 31.8717 12.4322 45.72H14.4322ZM21.0182 14.06C25.2731 6.69 32.7254 2.92 43.6722 2.92V0.919997C32.2189 0.919997 23.9913 4.90999 19.2862 13.06L21.0182 14.06ZM43.6722 2.92C54.5355 2.92 61.9499 6.68759 66.2062 14.06L67.9382 13.06C63.2345 4.91241 55.0489 0.919997 43.6722 0.919997V2.92ZM66.2084 14.0639C70.5632 21.5292 72.7922 32.0483 72.7922 45.72H74.7922C74.7922 31.8717 72.5412 20.9508 67.936 13.0561L66.2084 14.0639ZM72.7922 45.72C72.7922 59.6344 70.5623 70.3145 66.2062 77.86L67.9382 78.86C72.5421 70.8855 74.7922 59.8056 74.7922 45.72H72.7922ZM66.2062 77.86C61.9499 85.2324 54.5355 89 43.6722 89V91C55.0489 91 63.2345 87.0076 67.9382 78.86L66.2062 77.86ZM43.6722 89C32.7254 89 25.2731 85.23 21.0182 77.86L19.2862 78.86C23.9913 87.01 32.2189 91 43.6722 91V89ZM21.0182 77.86C16.6621 70.3145 14.4322 59.6344 14.4322 45.72H12.4322C12.4322 59.8056 14.6823 70.8855 19.2862 78.86L21.0182 77.86ZM63.9922 45.72C63.9922 38.7193 63.5098 32.7691 62.5328 27.8839L60.5716 28.2761C61.5146 32.9909 61.9922 38.8007 61.9922 45.72H63.9922ZM62.5363 27.9025C61.6282 22.8664 59.6737 18.752 56.6289 15.6226L55.1955 17.0174C57.9107 19.808 59.7162 23.5336 60.5681 28.2575L62.5363 27.9025ZM56.6387 15.6328C53.5953 12.4156 49.2162 10.88 43.6722 10.88V12.88C48.8481 12.88 52.629 14.3044 55.1857 17.0072L56.6387 15.6328ZM43.6722 10.88C38.0515 10.88 33.598 12.4134 30.4755 15.6226L31.9089 17.0174C34.5464 14.3066 38.4129 12.88 43.6722 12.88V10.88ZM30.4657 15.6328C27.5098 18.7577 25.5594 22.8626 24.571 27.887L26.5334 28.273C27.465 23.5374 29.2746 19.8023 31.9187 17.0072L30.4657 15.6328ZM24.5686 27.8997C23.6742 32.7783 23.2322 38.7228 23.2322 45.72H25.2322C25.2322 38.7972 25.6702 32.9817 26.5358 28.2603L24.5686 27.8997ZM23.2322 45.72C23.2322 52.9554 23.6739 59.0592 24.5681 64.0175L26.5363 63.6625C25.6704 58.8608 25.2322 52.8846 25.2322 45.72H23.2322ZM24.571 64.033C25.5594 69.0574 27.5098 73.1623 30.4657 76.2872L31.9187 74.9128C29.2746 72.1177 27.465 68.3826 26.5334 63.647L24.571 64.033ZM30.4755 76.2974C33.598 79.5066 38.0515 81.04 43.6722 81.04V79.04C38.4129 79.04 34.5464 77.6134 31.9089 74.9026L30.4755 76.2974ZM43.6722 81.04C49.2162 81.04 53.5953 79.5044 56.6387 76.2872L55.1857 74.9128C52.629 77.6156 48.8481 79.04 43.6722 79.04V81.04ZM56.6289 76.2974C59.6737 73.168 61.6282 69.0536 62.5363 64.0175L60.5681 63.6625C59.7162 68.3864 57.9107 72.112 55.1955 74.9026L56.6289 76.2974ZM62.5334 64.033C63.5101 59.0682 63.9922 52.9587 63.9922 45.72H61.9922C61.9922 52.8812 61.5143 58.8518 60.571 63.647L62.5334 64.033ZM88.5437 25.08L87.5466 25.0041L87.4648 26.08H88.5437V25.08ZM97.0638 7.79999L96.4332 7.02388L97.0638 7.79999ZM131.024 4.56L130.569 5.45076L130.58 5.45627L130.591 5.46152L131.024 4.56ZM140.024 12.48L139.164 12.9915L139.169 12.999L139.173 13.0064L140.024 12.48ZM138.824 36.72L138.043 36.0952L138.034 36.1061L138.824 36.72ZM127.784 43.68L127.561 42.705L126.784 42.8824V43.68H127.784ZM127.784 44.28H126.784V45.0637L127.545 45.251L127.784 44.28ZM140.144 51.84L140.921 51.2113L140.144 51.84ZM141.584 78.96L142.45 79.4603L142.454 79.4521L141.584 78.96ZM132.224 87.48L132.671 88.3744L132.224 87.48ZM96.3438 84L95.708 84.772L95.7149 84.7775L96.3438 84ZM87.2237 65.04V64.04H86.1423L86.2268 65.1182L87.2237 65.04ZM97.7838 65.04L98.777 64.9241L98.6739 64.04H97.7838V65.04ZM103.664 76.8L102.993 77.5415L103.664 76.8ZM129.824 77.04L129.117 76.3329L129.824 77.04ZM128.264 52.68L128.815 51.8454L128.264 52.68ZM107.384 48.72H106.384V49.72H107.384V48.72ZM107.384 39.6V38.6H106.384V39.6H107.384ZM110.264 39.6V40.6001L110.275 40.5999L110.264 39.6ZM126.944 36L127.469 36.851L127.475 36.847L127.482 36.8429L126.944 36ZM128.384 14.76L127.698 15.4882L127.704 15.4931L127.709 15.498L128.384 14.76ZM99.2237 25.08V26.08H100.102L100.215 25.2086L99.2237 25.08ZM89.5409 25.1559C90.0828 18.0338 92.8139 12.5415 97.6943 8.57611L96.4332 7.02388C91.0736 11.3785 88.1247 17.4062 87.5466 25.0041L89.5409 25.1559ZM97.6943 8.57611C102.597 4.59269 108.997 2.55999 116.984 2.55999V0.559994C108.65 0.559994 101.77 2.6873 96.4332 7.02388L97.6943 8.57611ZM116.984 2.55999C122.302 2.55999 126.819 3.53754 130.569 5.45076L131.478 3.66924C127.388 1.58245 122.545 0.559994 116.984 0.559994V2.55999ZM130.591 5.46152C134.438 7.30817 137.278 9.82272 139.164 12.9915L140.883 11.9685C138.769 8.41727 135.609 5.65182 131.456 3.65848L130.591 5.46152ZM139.173 13.0064C141.148 16.1966 142.144 19.8118 142.144 23.88H144.144C144.144 19.4682 143.059 15.4833 140.874 11.9536L139.173 13.0064ZM142.144 23.88C142.144 28.6314 140.77 32.6865 138.043 36.0953L139.605 37.3447C142.638 33.5535 144.144 29.0486 144.144 23.88H142.144ZM138.034 36.1061C135.38 39.5189 131.903 41.7149 127.561 42.705L128.006 44.655C132.785 43.5651 136.668 41.1211 139.613 37.3339L138.034 36.1061ZM126.784 43.68V44.28H128.784V43.68H126.784ZM127.545 45.251C132.557 46.4847 136.478 48.8969 139.366 52.4687L140.921 51.2113C137.729 47.2631 133.411 44.6353 128.023 43.309L127.545 45.251ZM139.366 52.4687C142.228 56.009 143.704 60.6886 143.704 66.6H145.704C145.704 60.3514 144.139 55.191 140.921 51.2113L139.366 52.4687ZM143.704 66.6C143.704 71.0016 142.702 74.9498 140.713 78.4679L142.454 79.4521C144.626 75.6102 145.704 71.3184 145.704 66.6H143.704ZM140.718 78.4597C138.747 81.8705 135.783 84.5824 131.777 86.5856L132.671 88.3744C136.985 86.2176 140.26 83.2495 142.45 79.4603L140.718 78.4597ZM131.777 86.5856C127.786 88.5807 122.947 89.6 117.224 89.6V91.6C123.18 91.6 128.341 90.5393 132.671 88.3744L131.777 86.5856ZM117.224 89.6C108.922 89.6 102.199 87.4498 96.9726 83.2225L95.7149 84.7775C101.368 89.3502 108.565 91.6 117.224 91.6V89.6ZM96.9795 83.2281C91.7832 78.9488 88.8432 72.8986 88.2207 64.9618L86.2268 65.1182C86.8843 73.5014 90.0243 80.0912 95.708 84.7719L96.9795 83.2281ZM87.2237 66.04H97.7838V64.04H87.2237V66.04ZM96.7905 65.1559C97.3765 70.1792 99.4405 74.3276 102.993 77.5415L104.335 76.0585C101.167 73.1924 99.311 69.5008 98.777 64.9241L96.7905 65.1559ZM102.993 77.5415C106.577 80.7848 111.317 82.36 117.104 82.36V80.36C111.691 80.36 107.47 78.8952 104.335 76.0585L102.993 77.5415ZM117.104 82.36C122.867 82.36 127.402 80.876 130.531 77.7471L129.117 76.3329C126.486 78.964 122.54 80.36 117.104 80.36V82.36ZM130.531 77.7471C133.7 74.5784 135.264 70.5137 135.264 65.64H133.264C133.264 70.0463 131.868 73.5816 129.117 76.3329L130.531 77.7471ZM135.264 65.64C135.264 59.4001 133.167 54.7178 128.815 51.8454L127.713 53.5146C131.361 55.9222 133.264 59.8799 133.264 65.64H135.264ZM128.815 51.8454C124.574 49.0464 118.3 47.72 110.144 47.72V49.72C118.148 49.72 123.954 51.0336 127.713 53.5146L128.815 51.8454ZM110.144 47.72H107.384V49.72H110.144V47.72ZM108.384 48.72V39.6H106.384V48.72H108.384ZM107.384 40.6H110.264V38.6H107.384V40.6ZM110.275 40.5999C117.709 40.5191 123.483 39.3105 127.469 36.851L126.419 35.149C122.885 37.3295 117.539 38.5209 110.253 38.6001L110.275 40.5999ZM127.482 36.8429C131.566 34.2361 133.584 30.2161 133.584 24.96H131.584C131.584 29.6239 129.842 32.9639 126.406 35.1571L127.482 36.8429ZM133.584 24.96C133.584 20.4759 132.091 16.7948 129.059 14.022L127.709 15.498C130.276 17.8452 131.584 20.9641 131.584 24.96H133.584ZM129.069 14.0318C126.104 11.2411 121.903 9.92 116.624 9.92V11.92C121.585 11.92 125.223 13.1589 127.698 15.4882L129.069 14.0318ZM116.624 9.92C111.488 9.92 107.241 11.2485 103.98 13.9951L105.268 15.5249C108.086 13.1515 111.839 11.92 116.624 11.92V9.92ZM103.98 13.9951C100.729 16.7323 98.8209 20.4092 98.232 24.9514L100.215 25.2086C100.747 21.1108 102.438 17.9077 105.268 15.5249L103.98 13.9951ZM99.2237 24.08H88.5437V26.08H99.2237V24.08Z" fill="#C9C5CA" mask="url(#path-1-outside-1_3034_213)"/>
</svg>
