<svg width="158" height="96" viewBox="0 0 158 96" fill="none" xmlns="http://www.w3.org/2000/svg">
<mask id="path-1-outside-1_3034_214" maskUnits="userSpaceOnUse" x="10" y="0" width="142" height="91" fill="black">
<rect fill="white" x="10" width="142" height="91"/>
<path d="M11.0298 45.72C11.0298 31.96 13.2698 21.24 17.7498 13.56C22.2298 5.8 30.0698 1.92 41.2698 1.92C52.3898 1.92 60.1898 5.8 64.6698 13.56C69.1498 21.24 71.3898 31.96 71.3898 45.72C71.3898 59.72 69.1498 70.6 64.6698 78.36C60.1898 86.12 52.3898 90 41.2698 90C30.0698 90 22.2298 86.12 17.7498 78.36C13.2698 70.6 11.0298 59.72 11.0298 45.72ZM60.5898 45.72C60.5898 38.76 60.1098 32.88 59.1498 28.08C58.2698 23.2 56.3898 19.28 53.5098 16.32C50.7098 13.36 46.6298 11.88 41.2698 11.88C35.8298 11.88 31.6698 13.36 28.7898 16.32C25.9898 19.28 24.1098 23.2 23.1498 28.08C22.2698 32.88 21.8298 38.76 21.8298 45.72C21.8298 52.92 22.2698 58.96 23.1498 63.84C24.1098 68.72 25.9898 72.64 28.7898 75.6C31.6698 78.56 35.8298 80.04 41.2698 80.04C46.6298 80.04 50.7098 78.56 53.5098 75.6C56.3898 72.64 58.2698 68.72 59.1498 63.84C60.1098 58.96 60.5898 52.92 60.5898 45.72ZM83.7414 70.68V62.4L125.861 4.08H138.941V61.2H150.941V70.68H138.941V90H128.141V70.68H83.7414ZM128.621 15.48L96.3414 61.2H128.621V15.48Z"/>
</mask>
<path d="M17.7498 13.56L18.6136 14.0639L18.6159 14.06L17.7498 13.56ZM64.6698 13.56L63.8038 14.06L63.8061 14.0639L64.6698 13.56ZM17.7498 78.36L18.6159 77.86L17.7498 78.36ZM59.1498 28.08L58.1657 28.2575L58.1674 28.2668L58.1693 28.2761L59.1498 28.08ZM53.5098 16.32L52.7833 17.0073L52.7931 17.0174L53.5098 16.32ZM28.7898 16.32L28.073 15.6226L28.0634 15.6328L28.7898 16.32ZM23.1498 28.08L22.1686 27.887L22.1662 27.8997L23.1498 28.08ZM23.1498 63.84L22.1657 64.0175L22.1671 64.0253L22.1686 64.033L23.1498 63.84ZM28.7898 75.6L28.0633 76.2873L28.0731 76.2974L28.7898 75.6ZM53.5098 75.6L52.793 74.9026L52.7834 74.9128L53.5098 75.6ZM59.1498 63.84L58.1687 63.647L58.1671 63.6547L58.1657 63.6625L59.1498 63.84ZM12.0298 45.72C12.0298 32.0483 14.2589 21.5292 18.6136 14.0639L16.8861 13.0561C12.2808 20.9508 10.0298 31.8717 10.0298 45.72H12.0298ZM18.6159 14.06C22.8707 6.69 30.3231 2.92 41.2698 2.92V0.919997C29.8166 0.919997 21.589 4.90999 16.8838 13.06L18.6159 14.06ZM41.2698 2.92C52.1331 2.92 59.5476 6.68759 63.8038 14.06L65.5359 13.06C60.8321 4.91241 52.6466 0.919997 41.2698 0.919997V2.92ZM63.8061 14.0639C68.1608 21.5292 70.3898 32.0483 70.3898 45.72H72.3898C72.3898 31.8717 70.1389 20.9508 65.5336 13.0561L63.8061 14.0639ZM70.3898 45.72C70.3898 59.6344 68.16 70.3145 63.8038 77.86L65.5359 78.86C70.1397 70.8855 72.3898 59.8056 72.3898 45.72H70.3898ZM63.8038 77.86C59.5476 85.2324 52.1331 89 41.2698 89V91C52.6466 91 60.8321 87.0076 65.5359 78.86L63.8038 77.86ZM41.2698 89C30.3231 89 22.8707 85.23 18.6159 77.86L16.8838 78.86C21.589 87.01 29.8166 91 41.2698 91V89ZM18.6159 77.86C14.2597 70.3145 12.0298 59.6344 12.0298 45.72H10.0298C10.0298 59.8056 12.28 70.8855 16.8838 78.86L18.6159 77.86ZM61.5898 45.72C61.5898 38.7193 61.1075 32.7691 60.1304 27.8839L58.1693 28.2761C59.1122 32.9909 59.5898 38.8007 59.5898 45.72H61.5898ZM60.134 27.9025C59.2258 22.8664 57.2714 18.752 54.2266 15.6226L52.7931 17.0174C55.5083 19.808 57.3139 23.5336 58.1657 28.2575L60.134 27.9025ZM54.2363 15.6328C51.193 12.4156 46.8139 10.88 41.2698 10.88V12.88C46.4458 12.88 50.2267 14.3044 52.7834 17.0072L54.2363 15.6328ZM41.2698 10.88C35.6491 10.88 31.1956 12.4134 28.0731 15.6226L29.5066 17.0174C32.144 14.3066 36.0106 12.88 41.2698 12.88V10.88ZM28.0634 15.6328C25.1074 18.7577 23.1571 22.8626 22.1686 27.887L24.131 28.273C25.0626 23.5374 26.8723 19.8023 29.5163 17.0072L28.0634 15.6328ZM22.1662 27.8997C21.2718 32.7783 20.8298 38.7228 20.8298 45.72H22.8298C22.8298 38.7972 23.2679 32.9817 24.1335 28.2603L22.1662 27.8997ZM20.8298 45.72C20.8298 52.9554 21.2716 59.0592 22.1657 64.0175L24.134 63.6625C23.2681 58.8608 22.8298 52.8846 22.8298 45.72H20.8298ZM22.1686 64.033C23.1571 69.0574 25.1074 73.1623 28.0634 76.2872L29.5163 74.9128C26.8723 72.1177 25.0626 68.3826 24.131 63.647L22.1686 64.033ZM28.0731 76.2974C31.1956 79.5066 35.6491 81.04 41.2698 81.04V79.04C36.0106 79.04 32.144 77.6134 29.5066 74.9026L28.0731 76.2974ZM41.2698 81.04C46.8139 81.04 51.193 79.5044 54.2363 76.2872L52.7834 74.9128C50.2267 77.6156 46.4458 79.04 41.2698 79.04V81.04ZM54.2266 76.2974C57.2714 73.168 59.2258 69.0536 60.134 64.0175L58.1657 63.6625C57.3139 68.3864 55.5083 72.112 52.7931 74.9026L54.2266 76.2974ZM60.131 64.033C61.1077 59.0682 61.5898 52.9587 61.5898 45.72H59.5898C59.5898 52.8812 59.112 58.8518 58.1687 63.647L60.131 64.033ZM83.7414 70.68H82.7414V71.68H83.7414V70.68ZM83.7414 62.4L82.9307 61.8145L82.7414 62.0766V62.4H83.7414ZM125.861 4.08V3.08H125.35L125.051 3.49451L125.861 4.08ZM138.941 4.08H139.941V3.08H138.941V4.08ZM138.941 61.2H137.941V62.2H138.941V61.2ZM150.941 61.2H151.941V60.2H150.941V61.2ZM150.941 70.68V71.68H151.941V70.68H150.941ZM138.941 70.68V69.68H137.941V70.68H138.941ZM138.941 90V91H139.941V90H138.941ZM128.141 90H127.141V91H128.141V90ZM128.141 70.68H129.141V69.68H128.141V70.68ZM128.621 15.48H129.621V12.3298L127.805 14.9032L128.621 15.48ZM96.3414 61.2L95.5245 60.6232L94.4112 62.2H96.3414V61.2ZM128.621 61.2V62.2H129.621V61.2H128.621ZM84.7414 70.68V62.4H82.7414V70.68H84.7414ZM84.5521 62.9855L126.672 4.66549L125.051 3.49451L82.9307 61.8145L84.5521 62.9855ZM125.861 5.08H138.941V3.08H125.861V5.08ZM137.941 4.08V61.2H139.941V4.08H137.941ZM138.941 62.2H150.941V60.2H138.941V62.2ZM149.941 61.2V70.68H151.941V61.2H149.941ZM150.941 69.68H138.941V71.68H150.941V69.68ZM137.941 70.68V90H139.941V70.68H137.941ZM138.941 89H128.141V91H138.941V89ZM129.141 90V70.68H127.141V90H129.141ZM128.141 69.68H83.7414V71.68H128.141V69.68ZM127.805 14.9032L95.5245 60.6232L97.1583 61.7768L129.438 16.0568L127.805 14.9032ZM96.3414 62.2H128.621V60.2H96.3414V62.2ZM129.621 61.2V15.48H127.621V61.2H129.621Z" fill="#C9C5CA" mask="url(#path-1-outside-1_3034_214)"/>
</svg>
