<svg width="44" height="44" viewBox="0 0 44 44" fill="none" xmlns="http://www.w3.org/2000/svg">
<g clip-path="url(#clip0_644_780)">
<path d="M21.6001 14.3999C19.6906 14.3999 17.8592 15.1585 16.509 16.5087C15.1587 17.859 14.4001 19.6903 14.4001 21.5999C14.4001 23.5095 15.1587 25.3408 16.509 26.6911C17.8592 28.0413 19.6906 28.7999 21.6001 28.7999C23.5097 28.7999 25.3411 28.0413 26.6913 26.6911C28.0416 25.3408 28.8001 23.5095 28.8001 21.5999C28.8001 19.6903 28.0416 17.859 26.6913 16.5087C25.3411 15.1585 23.5097 14.3999 21.6001 14.3999Z" fill="white"/>
<path fill-rule="evenodd" clip-rule="evenodd" d="M12.96 0C9.52279 0 6.22637 1.36542 3.7959 3.7959C1.36542 6.22637 0 9.52279 0 12.96L0 30.24C0 33.6772 1.36542 36.9736 3.7959 39.4041C6.22637 41.8346 9.52279 43.2 12.96 43.2H30.24C33.6772 43.2 36.9736 41.8346 39.4041 39.4041C41.8346 36.9736 43.2 33.6772 43.2 30.24V12.96C43.2 9.52279 41.8346 6.22637 39.4041 3.7959C36.9736 1.36542 33.6772 0 30.24 0L12.96 0ZM11.52 21.6C11.52 18.9266 12.582 16.3627 14.4724 14.4724C16.3627 12.582 18.9266 11.52 21.6 11.52C24.2734 11.52 26.8373 12.582 28.7276 14.4724C30.618 16.3627 31.68 18.9266 31.68 21.6C31.68 24.2734 30.618 26.8373 28.7276 28.7276C26.8373 30.618 24.2734 31.68 21.6 31.68C18.9266 31.68 16.3627 30.618 14.4724 28.7276C12.582 26.8373 11.52 24.2734 11.52 21.6ZM31.68 11.52H34.56V8.64H31.68V11.52Z" fill="white"/>
</g>
<defs>
<clipPath id="clip0_644_780">
<rect width="43.2" height="43.2" fill="white"/>
</clipPath>
</defs>
</svg>
