<svg width="44" height="44" viewBox="0 0 44 44" fill="none" xmlns="http://www.w3.org/2000/svg">
<path fill-rule="evenodd" clip-rule="evenodd" d="M22.7602 5.15314C24.6024 5.125 26.4304 5.13905 28.2584 5.125C28.371 7.27656 29.1444 9.47027 30.7192 10.989C32.2942 12.5499 34.516 13.2671 36.6815 13.5061V19.1733C34.6566 19.1029 32.6176 18.6811 30.7755 17.8092C29.974 17.4436 29.2287 16.9795 28.4975 16.5014C28.4834 20.6076 28.5116 24.7138 28.4694 28.8059C28.3569 30.7747 27.71 32.7294 26.571 34.3465C24.7289 37.0465 21.5369 38.8043 18.2604 38.8605C16.2496 38.973 14.2387 38.4246 12.5232 37.4121C9.6827 35.7387 7.68588 32.6731 7.39061 29.3825C7.36247 28.6794 7.34842 27.9763 7.37652 27.2872C7.62964 24.6154 8.95146 22.056 11.0045 20.3123C13.3388 18.2873 16.6011 17.317 19.6525 17.8936C19.6807 19.9748 19.5963 22.056 19.5963 24.1373C18.2042 23.6872 16.573 23.8138 15.3496 24.6576C14.4637 25.2341 13.7888 26.12 13.4372 27.1185C13.1419 27.8357 13.2263 28.6231 13.2403 29.3825C13.5778 31.6887 15.7996 33.6293 18.162 33.4184C19.737 33.4043 21.2416 32.4903 22.0572 31.1544C22.3243 30.6903 22.6196 30.2122 22.6337 29.6637C22.7743 27.1466 22.718 24.6435 22.7321 22.1264C22.7462 16.4592 22.718 10.8062 22.7602 5.15314Z" fill="white"/>
</svg>
