<svg width="30" height="30" viewBox="0 0 30 30" fill="none" xmlns="http://www.w3.org/2000/svg">
<path d="M13.75 4.99979H5C4.33696 4.99979 3.70107 5.26319 3.23223 5.73203C2.76339 6.20087 2.5 6.83675 2.5 7.49979V24.9998C2.5 25.6628 2.76339 26.2987 3.23223 26.7676C3.70107 27.2364 4.33696 27.4998 5 27.4998H22.5C23.163 27.4998 23.7989 27.2364 24.2678 26.7676C24.7366 26.2987 25 25.6628 25 24.9998V16.2498M23.125 3.12479C23.6223 2.62751 24.2967 2.34814 25 2.34814C25.7033 2.34814 26.3777 2.62751 26.875 3.12479C27.3723 3.62208 27.6517 4.29653 27.6517 4.99979C27.6517 5.70306 27.3723 6.37751 26.875 6.87479L15 18.7498L10 19.9998L11.25 14.9998L23.125 3.12479Z" stroke="black" stroke-opacity="0.5" stroke-width="4" stroke-linecap="round" stroke-linejoin="round"/>
</svg>
