<svg width="518" height="518" viewBox="0 0 518 518" fill="none" xmlns="http://www.w3.org/2000/svg">
<g clip-path="url(#clip0_996_161)">
<path fill-rule="evenodd" clip-rule="evenodd" d="M259 518C402.041 518 518 402.041 518 259C518 115.959 402.041 0 259 0C115.959 0 0 115.959 0 259C0 402.041 115.959 518 259 518ZM164.972 410.459C164.972 411.022 165.253 411.303 165.816 411.303C173.136 411.303 188.713 396.008 212.549 365.415C230.378 343.082 244.454 323.657 254.777 307.14C255.152 310.707 256.841 321.404 259.845 339.234C262.097 352.184 263.223 362.882 263.223 371.327C263.223 379.961 262.097 385.966 259.845 389.345C258.344 389.72 257.592 390.752 257.592 392.441C257.592 393.192 257.78 393.567 258.155 393.567C266.413 393.567 281.052 374.612 302.073 336.7C309.767 322.812 317.368 309.017 324.876 295.316C332.571 281.428 340.266 267.634 347.961 253.933C368.23 220.15 387.374 196.033 405.391 181.582C408.582 178.954 411.96 176.608 415.526 174.543C419.092 172.291 422.846 170.227 426.787 168.35C432.605 165.723 438.517 164.409 444.523 164.409C458.224 164.409 465.074 170.977 465.074 184.115C465.074 185.992 464.604 188.62 463.666 191.998C462.728 195.188 462.259 197.535 462.259 199.036C462.259 199.224 462.352 199.411 462.54 199.599C463.854 199.411 465.074 196.221 466.2 190.027C466.575 187.587 466.857 185.429 467.045 183.552C467.42 181.675 467.608 180.08 467.608 178.766C467.608 171.259 465.637 164.972 461.696 159.904C457.942 154.837 452.405 152.303 445.086 152.303C440.393 152.303 435.796 153.429 431.291 155.682C412.336 164.315 393.474 180.549 374.705 204.385C367.761 213.205 360.536 223.622 353.028 235.634C345.521 247.458 337.733 260.783 329.662 275.61C323.843 287.059 317.932 298.507 311.926 309.955C305.921 321.216 299.914 332.571 293.909 344.02C281.147 367.667 271.105 382.118 263.786 387.374C272.42 373.486 276.736 356.407 276.736 336.137C276.736 332.196 276.454 328.442 275.891 324.876C274.39 314.553 273.17 305.921 272.232 298.976C271.293 291.845 270.636 286.214 270.261 282.085C289.404 248.865 298.976 224.466 298.976 208.889C298.976 198.003 294.66 192.561 286.026 192.561C283.586 192.561 281.052 193.405 278.425 195.095C268.853 200.537 261.909 212.83 257.592 231.974C256.091 238.542 254.965 245.487 254.214 252.807C253.463 260.126 253.088 267.821 253.088 275.891C253.088 280.021 253.182 284.149 253.37 288.278C253.558 292.408 253.839 296.536 254.214 300.665C243.328 319.809 231.504 338.108 218.742 355.562C201.851 379.022 187.4 394.787 175.388 402.858C173.511 403.984 171.822 404.922 170.321 405.673C168.82 406.611 167.599 407.269 166.661 407.644C165.535 407.832 164.972 408.77 164.972 410.459ZM137.101 425.942C137.101 426.88 137.289 427.35 137.664 427.35C138.227 427.35 138.79 426.88 139.353 425.942C156.62 397.415 168.82 359.878 175.951 313.334C186.086 306.014 191.153 298.695 191.153 291.375C191.153 289.311 190.215 288.278 188.338 288.278C186.086 288.278 182.801 289.967 178.485 293.346C179.236 286.777 179.799 280.302 180.174 273.921C180.549 267.539 180.737 261.346 180.737 255.34C180.737 247.27 180.455 239.668 179.892 232.537C179.329 225.405 178.391 218.649 177.077 212.267C190.215 223.716 196.784 243.141 196.784 270.542C196.784 284.993 193.875 303.199 188.057 325.158C186.179 332.102 183.834 339.89 181.018 348.524C178.391 357.158 175.2 366.635 171.447 376.958C165.441 394.037 162.438 403.233 162.438 404.547C162.438 405.861 163.189 406.517 164.69 406.517C165.441 406.517 166.098 406.142 166.661 405.391C174.918 389.814 181.675 376.583 186.93 365.697C192.373 354.811 196.314 346.178 198.754 339.797C209.077 314.648 214.238 291.093 214.238 269.135C214.238 230.66 200.913 207.763 174.262 200.443C168.443 179.611 159.716 169.195 148.08 169.195C145.453 169.195 144.139 170.133 144.139 172.01C144.139 172.573 144.609 173.042 145.547 173.417C156.245 175.295 164.315 183.927 169.758 199.317C166.191 198.754 162.438 198.473 158.497 198.473C142.732 198.473 127.248 203.259 112.046 212.83C96.8435 222.59 86.0519 234.508 79.6707 248.584C74.9786 258.718 72.6326 269.51 72.6326 280.959C71.8818 290.342 74.2279 298.413 79.6707 305.17C85.1134 311.738 92.4329 315.023 101.629 315.023C110.263 315.023 120.022 311.363 130.908 304.043C141.042 297.099 148.55 289.686 153.429 281.803C153.804 280.677 153.992 280.021 153.992 279.833C153.992 279.082 153.804 278.707 153.429 278.707C153.054 278.707 152.585 279.082 152.022 279.833C149.395 283.586 146.391 287.152 143.013 290.53C139.823 293.909 136.257 296.912 132.315 299.539C123.495 305.545 114.954 308.548 106.697 308.548C99.1895 308.548 92.8084 305.921 87.5533 300.665C83.0489 296.349 80.7967 288.935 80.7967 278.425C80.7967 259.47 87.6471 242.297 101.348 226.907C115.424 210.578 131.659 202.414 150.051 202.414C158.122 202.414 165.628 204.573 172.573 208.889C175.763 222.59 177.359 238.542 177.359 256.748C177.359 267.258 176.796 278.332 175.67 289.967C173.98 286.589 172.103 284.9 170.039 284.9C166.286 284.9 164.409 288.466 164.409 295.598C164.409 302.729 166.942 309.392 172.01 315.586L172.291 315.304C171.54 320.747 169.476 328.066 166.098 337.263C162.72 346.46 158.122 357.533 152.303 370.483C142.168 393.192 137.101 411.678 137.101 425.942ZM291.657 206.918C291.657 220.995 284.243 242.765 269.416 272.232C269.041 266.976 268.665 262.003 268.29 257.311C268.102 252.618 268.009 248.114 268.009 243.798C268.009 210.953 273.827 194.532 285.463 194.532C289.592 194.532 291.657 198.661 291.657 206.918Z" fill="black"/>
</g>
<defs>
<clipPath id="clip0_996_161">
<rect width="518" height="518" fill="white"/>
</clipPath>
</defs>
</svg>
